<?xml version="1.0" encoding="utf-8"?>
<!-- Generator: Adobe Illustrator 19.1.0, SVG Export Plug-In . SVG Version: 6.00 Build 0)  -->
<svg version="1.1" id="Layer_1" xmlns="http://www.w3.org/2000/svg" xmlns:xlink="http://www.w3.org/1999/xlink" x="0px" y="0px"
	 viewBox="0 0 18.4 18.2" style="enable-background:new 0 0 18.4 18.2;" xml:space="preserve">
<style type="text/css">
	.st0{fill:#AEADB3;}
</style>
<path class="st0" d="M4.9,4.4C4.9,4.7,4.6,5,4.3,5H1.2C0.9,5,0.6,4.7,0.6,4.4V1.3c0-0.3,0.3-0.6,0.6-0.6h3.1c0.3,0,0.6,0.3,0.6,0.6
	V4.4z"/>
<path class="st0" d="M11.1,4.4c0,0.3-0.3,0.6-0.6,0.6H7.4C7.1,5,6.9,4.7,6.9,4.4V1.3c0-0.3,0.3-0.6,0.6-0.6h3.1
	c0.3,0,0.6,0.3,0.6,0.6V4.4z"/>
<path class="st0" d="M17.4,4.4c0,0.3-0.3,0.6-0.6,0.6h-3.1c-0.3,0-0.6-0.3-0.6-0.6V1.3c0-0.3,0.3-0.6,0.6-0.6h3.1
	c0.3,0,0.6,0.3,0.6,0.6V4.4z"/>
<path class="st0" d="M4.9,10.6c0,0.3-0.3,0.6-0.6,0.6H1.2c-0.3,0-0.6-0.3-0.6-0.6V7.4c0-0.3,0.3-0.6,0.6-0.6h3.1
	c0.3,0,0.6,0.3,0.6,0.6V10.6z"/>
<path class="st0" d="M11.1,10.6c0,0.3-0.3,0.6-0.6,0.6H7.4c-0.3,0-0.6-0.3-0.6-0.6V7.4c0-0.3,0.3-0.6,0.6-0.6h3.1
	c0.3,0,0.6,0.3,0.6,0.6V10.6z"/>
<path class="st0" d="M17.4,10.6c0,0.3-0.3,0.6-0.6,0.6h-3.1c-0.3,0-0.6-0.3-0.6-0.6V7.4c0-0.3,0.3-0.6,0.6-0.6h3.1
	c0.3,0,0.6,0.3,0.6,0.6V10.6z"/>
<path class="st0" d="M4.9,16.7c0,0.3-0.3,0.6-0.6,0.6H1.2c-0.3,0-0.6-0.3-0.6-0.6v-3.1c0-0.3,0.3-0.6,0.6-0.6h3.1
	c0.3,0,0.6,0.3,0.6,0.6V16.7z"/>
<path class="st0" d="M11.1,16.7c0,0.3-0.3,0.6-0.6,0.6H7.4c-0.3,0-0.6-0.3-0.6-0.6v-3.1c0-0.3,0.3-0.6,0.6-0.6h3.1
	c0.3,0,0.6,0.3,0.6,0.6V16.7z"/>
<path class="st0" d="M17.4,16.7c0,0.3-0.3,0.6-0.6,0.6h-3.1c-0.3,0-0.6-0.3-0.6-0.6v-3.1c0-0.3,0.3-0.6,0.6-0.6h3.1
	c0.3,0,0.6,0.3,0.6,0.6V16.7z"/>
</svg>
