<?xml version="1.0" encoding="utf-8"?>
<!-- Generator: Adobe Illustrator 19.1.0, SVG Export Plug-In . SVG Version: 6.00 Build 0)  -->
<svg version="1.1" id="Layer_1" xmlns="http://www.w3.org/2000/svg" xmlns:xlink="http://www.w3.org/1999/xlink" x="0px" y="0px"
	 viewBox="0 0 100 125" style="enable-background:new 0 0 100 125;" xml:space="preserve">
<style type="text/css">
	.st0{fill:#949494;}
</style>
<g>
	<path class="st0" d="M20.7,84.1c-2.5,0-4.5-2-4.5-4.5c0-2.5,2-4.5,4.5-4.5h13c0.6-2.8,1.5-5.4,2.7-7.9H20.7c-2.5,0-4.5-2-4.5-4.5
		c0-2.5,2-4.5,4.5-4.5h22c2.8-3,6.1-5.5,9.7-7.4H20.7c-2.5,0-4.5-2-4.5-4.5s2-4.5,4.5-4.5h35.7c2.5,0,4.5,2,4.5,4.5
		c0,0.5-0.1,1-0.3,1.5c2.7-0.7,5.6-1,8.5-1c1.9,0,3.7,0.1,5.4,0.4V20.2c0-5-4.1-9.1-9.1-9.1H11.6c-5,0-9.1,4.1-9.1,9.1v71.9
		c0,5,4.1,9.1,9.1,9.1h26.3c-3-5-4.8-10.9-5-17.1L20.7,84.1L20.7,84.1z M20.7,25.8h35.7c2.5,0,4.5,2,4.5,4.5s-2,4.5-4.5,4.5H20.7
		c-2.5,0-4.5-2-4.5-4.5S18.2,25.8,20.7,25.8z"/>
	<path class="st0" d="M69.1,111.2c15.6,0,28.3-12.7,28.3-28.3c0-15.6-12.7-28.3-28.3-28.3S40.8,67.2,40.8,82.9
		C40.8,98.5,53.5,111.2,69.1,111.2z M54.8,80.3c0.6-0.6,1.4-0.9,2.2-0.9c0.8,0,1.5,0.3,2.1,0.9l6.8,6.6V69.3c0-1.7,1.4-3.1,3.1-3.1
		c1.7,0,3.1,1.4,3.1,3.1v17.5l6.8-6.6c1.2-1.2,3.2-1.2,4.4,0.1c1.2,1.2,1.2,3.2-0.1,4.4L71.2,96.3c-1.2,1.2-3.1,1.2-4.3,0L54.9,84.6
		C53.7,83.4,53.7,81.5,54.8,80.3z"/>
</g>
</svg>
